<svg xmlns="http://www.w3.org/2000/svg" viewBox="0 0 780 780" id="doctors-case">
  <path fill="#ff6498" d="m737.4 439.5-23.2 7L394 530h-4.6l-318-90.5-23.2-7-9.3-3.1v266.2c0 16.2 4.8 26.9 11.9 26.9H735c7.1 0 11.9-10.8 11.9-26.9V436.4l-9.5 3.1z"></path>
  <path fill="#ff0b5c" d="M746.9 695.7V481.8l-8.3 2.7-21.1 6.3L401 573h-4.2l-289.3-81.5-21.1-6.3-8.5-2.8v240.2H735c7.1 0 11.9-10.8 11.9-26.9z"></path>
  <path fill="none" stroke="#000" stroke-linecap="round" stroke-linejoin="round" stroke-miterlimit="10" stroke-width="20" d="m737.4 439.5-23.2 7L394 530h-4.6l-318-90.5-23.2-7-9.3-3.1v266.2c0 16.2 4.8 26.9 11.9 26.9H735c7.1 0 11.9-10.8 11.9-26.9V436.4l-9.5 3.1z"></path>
  <path fill="#ff6498" d="m746.7 186.6-710.1 2.3c-7 0-11.6 4.6-11.6 11.6v215.8c0 4.6 4.6 9.3 9.3 11.6l13.9 4.6 23.2 7L389.3 530h4.6l320.2-83.5 23.2-7 13.9-4.6c4.6-2.3 9.3-7 9.3-11.6V200.5c.1-9.3-6.8-13.9-13.8-13.9z"></path>
  <path fill="#ff0b5c" d="M75.6 234.9c-7 0-11.6 4.6-11.6 11.6v190.8l7.4 2.2L389.3 530h4.6l320.2-83.5 23.2-7 13.9-4.6c4.6-2.3 9.3-7 9.3-11.6V232.7l-684.9 2.2z"></path>
  <path fill="none" stroke="#000" stroke-linecap="round" stroke-linejoin="round" stroke-miterlimit="10" stroke-width="20" d="m746.7 186.6-710.1 2.3c-7 0-11.6 4.6-11.6 11.6v215.8c0 4.6 4.6 9.3 9.3 11.6l13.9 4.6 23.2 7L389.3 530h4.6l320.2-83.5 23.2-7 13.9-4.6c4.6-2.3 9.3-7 9.3-11.6V200.5c.1-9.3-6.8-13.9-13.8-13.9zM517 185.3c0-65-41.8-124.5-125.3-124.5s-125.3 59.6-125.3 126.9"></path>
  <path fill="#fff" d="M366.3 436.2c-5.5 0-10-4.5-10-10v-40.6h-42.2c-5.5 0-10-4.5-10-10v-53c0-5.5 4.5-10 10-10h42.2v-42.2c0-5.5 4.5-10 10-10h53c5.5 0 10 4.5 10 10v42.2h42.2c5.5 0 10 4.5 10 10v53c0 5.5-4.5 10-10 10h-42.2v40.6c0 5.5-4.5 10-10 10h-53z"></path>
  <path d="M419.3 270.4v52.2h52.2v53h-52.2v50.6h-53v-50.6h-52.2v-53h52.2v-52.2h53m0-20h-53c-11 0-20 9-20 20v32.2h-32.2c-11 0-20 9-20 20v53c0 11 9 20 20 20h32.2v30.6c0 11 9 20 20 20h53c11 0 20-9 20-20v-30.6h32.2c11 0 20-9 20-20v-53c0-11-9-20-20-20h-32.2v-32.2c0-11.1-8.9-20-20-20z"></path>
</svg>
