<svg xmlns="http://www.w3.org/2000/svg" viewBox="0 0 512 512" id="healthcare">
  <path fill="#00efd1" d="M355.49,141.5a20.407,20.407,0,0,1,20.68-20.69,20.839,20.839,0,0,1,14.71,5.98,21.245,21.245,0,0,1,5.97,14.71,20.423,20.423,0,0,1,20.69-20.69,20.857,20.857,0,0,1,14.71,5.98,25.376,25.376,0,0,1,4.36,7.79c1.03,2.67,1.61,4.85,1.61,4.85a82.73,82.73,0,1,0-165.46,0s2.29-8.73,5.97-12.64a21.254,21.254,0,0,1,14.71-5.98,20.857,20.857,0,0,1,14.71,5.98,21.29,21.29,0,0,1,5.97,14.71,20.423,20.423,0,0,1,20.69-20.69,20.816,20.816,0,0,1,14.7,5.98A21.254,21.254,0,0,1,355.49,141.5Zm0-130.73a125.115,125.115,0,0,1,0,250.23c-.56,0-1.12,0-1.68-.01a125.116,125.116,0,0,1,1.68-250.22Z"></path>
  <path fill="#00acea" d="M355.49 141.5a21.254 21.254 0 0 0-5.98-14.71 20.816 20.816 0 0 0-14.7-5.98 20.423 20.423 0 0 0-20.69 20.69 21.29 21.29 0 0 0-5.97-14.71 20.857 20.857 0 0 0-14.71-5.98 21.254 21.254 0 0 0-14.71 5.98c-3.68 3.91-5.97 12.64-5.97 12.64a82.73 82.73 0 0 1 165.46 0s-.58-2.18-1.61-4.85a25.376 25.376 0 0 0-4.36-7.79 20.857 20.857 0 0 0-14.71-5.98 20.423 20.423 0 0 0-20.69 20.69 21.245 21.245 0 0 0-5.97-14.71 20.839 20.839 0 0 0-14.71-5.98 20.407 20.407 0 0 0-20.68 20.69zM353.81 260.99v65.32c0 35.97-24.06 81.39-53.74 101.62L192.6 501.23 85.13 427.93C55.45 407.7 31.4 362.06 31.4 326.31V175.26L192.6 96.31 232 115.66A125.2 125.2 0 0 0 353.81 260.99zM269 323V278H214V223H170v55H114v45h56v55h44V323z"></path>
  <polygon fill="#fedb41" points="269 278 269 323 214 323 214 378 170 378 170 323 114 323 114 278 170 278 170 223 214 223 214 278 269 278"></polygon>
  <path fill="#083863" d="M222 223a8 8 0 0 0-8-8H170a8 8 0 0 0-8 8v47H114a8 8 0 0 0-8 8v45a8 8 0 0 0 8 8h48v47a8 8 0 0 0 8 8h44a8 8 0 0 0 8-8V331h47a8 8 0 0 0 8-8V278a8 8 0 0 0-8-8H222zm39 63v29H214a8 8 0 0 0-8 8v47H178V323a8 8 0 0 0-8-8H122V286h48a8 8 0 0 0 8-8V231h28v47a8 8 0 0 0 8 8zM355.49 48.7a90.692 90.692 0 0 0-90.73 90.73 8 8 0 0 0 15.735 2.042c.845-3.181 2.6-7.48 3.929-9.051a13.335 13.335 0 0 1 9.016-3.611 12.858 12.858 0 0 1 8.966 3.551 13.4 13.4 0 0 1 3.714 9.139 8 8 0 0 0 16 0 12.438 12.438 0 0 1 12.69-12.69 12.224 12.224 0 0 1 8.711 3.551A13.307 13.307 0 0 1 347 141.5v62.08a3.184 3.184 0 0 1-3.245 3.49 3.115 3.115 0 0 1-2.38-.987 3.428 3.428 0 0 1-.927-2.5 7.977 7.977 0 1 0-15.953 0 19.4 19.4 0 0 0 5.681 13.818 18.834 18.834 0 0 0 13.575 5.672A19.081 19.081 0 0 0 363 203.58V141.5a13.474 13.474 0 0 1 3.88-9.053 13.687 13.687 0 0 1 9.167-3.637 13 13 0 0 1 9.03 3.554 13.37 13.37 0 0 1 3.742 9.136 8.012 8.012 0 0 0 16.023 0 12.446 12.446 0 0 1 12.7-12.69 12.864 12.864 0 0 1 8.945 3.529 19.144 19.144 0 0 1 2.662 5.119c.846 2.193 1.341 4.022 1.343 4.029a8 8 0 0 0 15.732-2.057A90.832 90.832 0 0 0 355.49 48.7zm62.05 64.11a29.049 29.049 0 0 0-20.193 8.154q-.177.167-.343.344c-.05.052-.1.106-.149.159l-.149-.159c-.056-.059-.112-.117-.169-.174a28.948 28.948 0 0 0-20.367-8.324 29.436 29.436 0 0 0-20.193 8.154c-.121.114-.237.231-.35.351l-.142.152-.15-.16c-.053-.057-.106-.112-.16-.166a28.9 28.9 0 0 0-20.365-8.331 29.4 29.4 0 0 0-20.2 8.161q-.172.163-.336.337l-.148.159-.142-.152c-.057-.062-.116-.122-.176-.182A29.138 29.138 0 0 0 285.168 114a74.77 74.77 0 0 1 140.594-.01A29.291 29.291 0 0 0 417.54 112.81z"></path>
  <path fill="#083863" d="M355.49,2.77A133.153,133.153,0,0,0,226.248,103.922L196.127,89.129a8,8,0,0,0-7.045,0l-161.4,78.95A8.189,8.189,0,0,0,23,175.26V326.31c0,18.586,6.117,40.025,16.861,60.366,10.759,20.37,25.264,37.369,40.661,47.864l107.52,73.3a8.06,8.06,0,0,0,9.053,0l107.57-73.3C336.759,412.666,362,365.125,362,326.31V268.846c70-3.311,126.7-61.682,126.7-132.966C488.7,62.483,428.887,2.77,355.49,2.77ZM346,326.31c0,33.5-22.635,76.126-50.342,95.011L192.647,491.546,89.459,421.32C62.229,402.759,39,359.25,39,326.31V180.25l153.4-75.03L223.188,120.3a134.6,134.6,0,0,0-.868,15.585A133.328,133.328,0,0,0,346,268.648ZM355.49,253c-.514,0-1.027,0-1.575-.009A117.039,117.039,0,0,1,238.422,135.88,119.892,119.892,0,0,1,240,116.944v0c4-27.113,18.327-51.96,39.3-69.962A117.1,117.1,0,1,1,355.49,253Z"></path>
</svg>
