<svg xmlns="http://www.w3.org/2000/svg" width="100" height="100" id="heart-hospital">
  <path fill="#ED2F47" d="M86.047 21.878c-8.185-8.185-21.454-8.185-29.64.001L50 28.287l-6.407-6.407c-8.186-8.186-21.455-8.186-29.64-.001-8.186 8.186-8.186 21.456 0 29.643l6.406 6.406L50 87.568l29.641-29.641 6.406-6.406c8.185-8.187 8.185-21.457 0-29.643z"></path>
  <path d="M50 89.689 12.893 52.582c-8.757-8.758-8.757-23.007 0-31.764a22.31 22.31 0 0 1 15.879-6.578 22.309 22.309 0 0 1 15.881 6.579L50 26.166l5.347-5.347a22.309 22.309 0 0 1 15.881-6.579 22.307 22.307 0 0 1 15.879 6.578c8.757 8.757 8.757 23.006 0 31.764L50 89.689zM28.772 17.24a19.33 19.33 0 0 0-13.758 5.699c-7.587 7.587-7.587 19.933 0 27.521L50 85.447 84.986 50.46c7.587-7.588 7.587-19.934 0-27.521a19.331 19.331 0 0 0-13.758-5.699 19.33 19.33 0 0 0-13.76 5.7L50 30.408l-7.468-7.468a19.335 19.335 0 0 0-13.76-5.7z"></path>
  <path fill="#FFD9CC" d="M62.767 45.95h-9.181v-9.18h-8.101v9.18h-9.179v8.101h9.179v9.179h8.101v-9.179h9.181z"></path>
  <path d="M55.086 64.73H43.985v-9.18h-9.18v-11.1h9.18v-9.18h11.101v9.18h9.18v11.101h-9.18v9.179zm-8.101-3h5.101v-9.18h9.18v-5.1h-9.18v-9.18h-5.101v9.18h-9.18v5.101h9.18v9.179z"></path>
</svg>
