<svg xmlns="http://www.w3.org/2000/svg" width="512" height="512" fill="none" viewBox="0 0 512 512" id="pill">
  <path fill="#BF0C2C" d="M392 168C440.601 168 480 207.399 480 256C480 304.601 440.601 344 392 344L120 344C71.3989 344 32 304.601 32 256C32 207.399 71.399 168 120 168L392 168Z"></path>
  <path fill="#FF3232" d="M384 168C423.765 168 456 200.236 456 240C456 279.765 423.764 312 384 312L312 312C272.235 312 240 279.765 240 240C240 200.235 272.236 168 312 168L384 168Z"></path>
  <path fill="#1A68DF" fill-rule="evenodd" d="M256 344L120 344C71.3989 344 32 304.601 32 256C32 207.399 71.3989 168 120 168L256 168L256 344Z" clip-rule="evenodd"></path>
  <path fill="#0094FF" fill-rule="evenodd" d="M151.999 312H119.999C74.368 312 36.8488 283.584 32.4336 247.2C36.8488 202.731 74.368 168 119.999 168H151.999V312Z" clip-rule="evenodd"></path>
  <path fill="#BF0C2C" d="M168 120C168 71.399 207.399 32 256 32C304.601 32 344 71.3989 344 120V392C344 440.601 304.601 480 256 480C207.399 480 168 440.601 168 392V120Z"></path>
  <path fill="#FF3232" fill-rule="evenodd" d="M247.597 32.3965C202.938 36.6272 168 74.2338 168 120V312C168 351.765 200.236 384 240 384C279.765 384 312 351.765 312 312V104C312 66.8018 283.79 36.1919 247.597 32.3965Z" clip-rule="evenodd"></path>
  <path fill="#1A68DF" fill-rule="evenodd" d="M344 256V392C344 440.601 304.601 480 256 480C207.399 480 168 440.601 168 392V256H344Z" clip-rule="evenodd"></path>
  <path fill="#0094FF" fill-rule="evenodd" d="M312 256V393.429C312 436.822 279.765 472 240 472C218.952 472 200.014 462.144 186.849 446.431C175.044 431.454 168 412.55 168 392V256H312Z" clip-rule="evenodd"></path>
  <path fill="#1A68DF" fill-rule="evenodd" d="M344 272H168V256H344V272Z" clip-rule="evenodd"></path>
</svg>
